Coordinates
version=1
nRows=7
nColumns=40
inDegrees=yes

Units are S.I. units (second, meters, Newtons, ...)
Angles are in degrees.

endheader
time	pelvis_tilt	pelvis_list	pelvis_rotation	pelvis_tx	pelvis_ty	pelvis_tz	hip_flexion_r	hip_adduction_r	hip_rotation_r	knee_angle_r	knee_angle_r_beta	ankle_angle_r	subtalar_angle_r	mtp_angle_r	hip_flexion_l	hip_adduction_l	hip_rotation_l	knee_angle_l	knee_angle_l_beta	ankle_angle_l	subtalar_angle_l	mtp_angle_l	lumbar_extension	lumbar_bending	lumbar_rotation	arm_flex_r	arm_add_r	arm_rot_r	elbow_flex_r	pro_sup_r	wrist_flex_r	wrist_dev_r	arm_flex_l	arm_add_l	arm_rot_l	elbow_flex_l	pro_sup_l	wrist_flex_l	wrist_dev_l
     57.62742857	     -2.25378370	     -5.81527008	     -5.83258604	      1.15849584	      0.92085468	      0.37919479	     29.72908655	     -4.32696830	     -0.21530948	     62.13432364	     62.13432364	      0.77828854	    -17.05298783	     -0.64601437	     16.94339111	     -4.69949516	     -7.15209026	     32.03671507	     32.03671507	     19.73931069	    -17.74034071	      7.04222523	    -12.37589202	      8.85500636	      1.67735097	     -7.77356472	    -11.32549056	     -7.81153367	     21.97222954	     46.96304345	      0.00000000	      0.00000000	     34.74232494	    -22.95330696	      7.35836397	     50.31635855	     46.74541919	      0.00000000	      0.00000000
     57.64985714	     -2.51536408	     -5.81839497	     -6.92376426	      1.15756073	      0.92298356	      0.37985981	     30.10079542	     -3.85481428	     -0.34497501	     58.80708789	     58.80708789	      1.97083680	    -16.49356364	     -1.21830839	     16.08024433	     -4.82957143	     -8.16841951	     30.70808368	     30.70808368	     19.58293254	    -17.63358803	      7.17961956	    -12.28487475	      8.86106713	      1.56029192	     -9.97085781	    -11.00190207	     -7.88880960	     21.96395955	     46.94293705	      0.00000000	      0.00000000	     36.53180897	    -23.96777689	      6.43722109	     51.78046503	     46.86077525	      0.00000000	      0.00000000
     57.67228571	     -2.96948606	     -5.82292453	     -8.02414249	      1.15644690	      0.92494177	      0.38085001	     30.37636044	     -3.40710573	     -0.58548416	     54.75180752	     54.75180752	      2.61010130	    -15.71064852	     -2.99693261	     15.37602024	     -5.00560992	     -9.26723495	     29.24713613	     29.24713613	     19.04658851	    -17.49098749	      6.49950815	    -12.07927076	      8.92559507	      1.56673406	    -12.71157589	    -10.71906779	     -8.18925228	     24.08831251	     46.82753667	      0.00000000	      0.00000000	     37.71233332	    -24.78427386	      4.72190511	     54.71393767	     47.05434236	      0.00000000	      0.00000000
     57.69471429	     -3.47051609	     -5.89328918	     -9.07249309	      1.15516357	      0.92693017	      0.38218144	     30.43365265	     -2.86911723	     -0.89272402	     50.18807382	     50.18807382	      3.42907480	    -14.41531521	     -3.06409736	     14.75199868	     -5.25135588	    -10.28480066	     27.84775443	     27.84775443	     18.81191497	    -17.25192863	      6.71249270	    -11.72856598	      9.06992795	      1.27006094	    -14.13880032	    -10.42335006	     -8.19346907	     24.09925449	     46.80876936	      0.00000000	      0.00000000	     39.38108385	    -25.90103711	      4.15010744	     55.60378748	     47.12763039	      0.00000000	      0.00000000
     57.71714286	     -3.82319376	     -5.84640328	    -10.14674230	      1.15398657	      0.92882412	      0.38372659	     30.06728468	     -2.57283188	     -1.32865175	     45.12683507	     45.12683507	      3.54903141	    -12.47386678	     -4.64603625	     13.84853425	     -5.36581899	    -11.53656676	     26.19038171	     26.19038171	     17.92140241	    -17.03950527	      5.18346218	    -11.71021126	      9.04064411	      1.27227117	    -16.70298211	    -10.23513932	     -8.15933583	     27.83468717	     46.58221620	      0.00000000	      0.00000000	     40.29685540	    -26.84290662	      2.51215142	     58.94512503	     47.31201303	      0.00000000	      0.00000000
     57.73957143	     -4.19645600	     -5.74786492	    -11.17070906	      1.15283109	      0.93040229	      0.38548054	     29.57627748	     -2.33069942	     -1.84162191	     39.93937986	     39.93937986	      3.83336731	     -9.76511291	     -4.42689544	     13.07675540	     -5.40730202	    -12.70406322	     24.74918732	     24.74918732	     17.67913873	    -16.65631742	      5.09668797	    -11.51568221	      8.95336130	      1.32025346	    -17.85743271	     -9.88754284	     -7.94781869	     28.34016580	     46.52501761	      0.00000000	      0.00000000	     41.96571713	    -27.65701071	      1.98195223	     60.22685272	     47.38595138	      0.00000000	      0.00000000
     57.76200000	     -4.80092139	     -5.70266431	    -12.06329595	      1.15163783	      0.93128617	      0.38743456	     29.10406586	     -1.90351921	     -2.31232396	     34.57240775	     34.57240775	      3.68877363	     -7.21577736	     -3.69589690	     12.69675896	     -5.55453748	    -13.62739027	     23.54648609	     23.54648609	     17.45709677	    -16.28946573	      5.08616886	    -11.02092751	      9.04623485	      1.26562017	    -18.64114811	     -9.51128857	     -7.86660748	     28.76082943	     46.48901873	      0.00000000	      0.00000000	     43.37062879	    -28.37540187	      1.59566605	     61.25555427	     47.44265587	      0.00000000	      0.00000000
